<svg width="34" height="34" viewBox="0 0 34 34" fill="none" xmlns="http://www.w3.org/2000/svg">
<g clip-path="url(#clip0_8324_35)">
<path d="M22.8552 3.16602H15.0786V5.81991C15.0786 5.98436 15.0462 6.14721 14.9833 6.29915C14.9204 6.45109 14.8281 6.58915 14.7118 6.70544C14.5956 6.82173 14.4575 6.91397 14.3056 6.97691C14.1536 7.03985 13.9908 7.07224 13.8263 7.07224H11.9374C11.6053 7.07224 11.2867 6.9403 11.0519 6.70544C10.817 6.47058 10.6851 6.15204 10.6851 5.81991V3.17546H2.87264C2.63719 3.17546 2.41138 3.26899 2.24489 3.43548C2.0784 3.60197 1.98486 3.82778 1.98486 4.06324V28.7812C1.98486 28.8978 2.00783 29.0133 2.05244 29.121C2.09706 29.2287 2.16245 29.3266 2.24489 29.409C2.32733 29.4914 2.42519 29.5568 2.5329 29.6014C2.64061 29.6461 2.75606 29.669 2.87264 29.669H9.26842C9.26842 29.6501 9.26842 29.6369 9.26842 29.618V27.4231C9.26892 27.1843 9.364 26.9554 9.53287 26.7866C9.70173 26.6177 9.93061 26.5226 10.1694 26.5221H11.3745V24.79C11.375 24.5507 11.4703 24.3213 11.6395 24.1521C11.8087 23.9829 12.0381 23.8876 12.2774 23.8871H14.4629C14.702 23.8876 14.9312 23.983 15.1001 24.1522C15.269 24.3215 15.3639 24.5509 15.3639 24.79V26.5221H20.7132C21.2283 25.0098 22.3124 23.7577 23.7354 23.0315V4.05379C23.7354 3.81964 23.6429 3.59497 23.4781 3.4287C23.3132 3.26242 23.0893 3.16801 22.8552 3.16602Z" fill="url(#paint0_linear_8324_35)"/>
<path opacity="0.8" d="M17.8652 19.8429C17.8281 18.7797 17.4759 17.7516 16.8534 16.889C16.2309 16.0264 15.3661 15.3682 14.3689 14.9979C13.9173 15.2824 13.3931 15.4306 12.8594 15.4245C12.3256 15.4185 11.805 15.2586 11.3599 14.9639C10.3208 15.2817 9.41496 15.9321 8.78156 16.815C8.14816 17.6978 7.82231 18.7643 7.85411 19.8504C7.83035 20.0868 7.90133 20.323 8.05147 20.5071C8.20161 20.6913 8.41866 20.8083 8.655 20.8326C8.68456 20.8346 8.71421 20.8346 8.74378 20.8326H16.9774C17.2136 20.8331 17.4403 20.74 17.6078 20.5735C17.7753 20.4071 17.8699 20.181 17.8709 19.9449C17.8707 19.9108 17.8688 19.8768 17.8652 19.8429Z" fill="white"/>
<path opacity="0.9" d="M12.9164 15.4247C12.3801 15.4238 11.8555 15.2684 11.4053 14.9771L12.9164 18.9116L14.4124 15.0035C13.9633 15.282 13.4448 15.428 12.9164 15.4247Z" fill="white"/>
<path opacity="0.8" d="M12.8951 15.4265C14.4474 15.4265 15.7058 14.1681 15.7058 12.6158C15.7058 11.0636 14.4474 9.80518 12.8951 9.80518C11.3429 9.80518 10.0845 11.0636 10.0845 12.6158C10.0845 14.1681 11.3429 15.4265 12.8951 15.4265Z" fill="white"/>
<path d="M13.8289 0H11.9306C11.6353 0 11.396 0.239329 11.396 0.534556V5.81967C11.396 6.11489 11.6353 6.35422 11.9306 6.35422H13.8289C14.1241 6.35422 14.3634 6.11489 14.3634 5.81967V0.534556C14.3634 0.239329 14.1241 0 13.8289 0Z" fill="#773ADC"/>
<path d="M21.2238 29.8446C21.4673 30.8255 21.9775 31.72 22.698 32.429C23.4184 33.1379 24.3209 33.6337 25.3057 33.8615C26.2905 34.0893 27.3191 34.0401 28.2776 33.7195C29.2362 33.3989 30.0874 32.8193 30.7369 32.0449C31.3865 31.2705 31.8092 30.3315 31.9581 29.3318C32.107 28.3321 31.9765 27.3106 31.5808 26.3805C31.1852 25.4504 30.5399 24.6479 29.7164 24.0618C28.893 23.4757 27.9234 23.1288 26.915 23.0597C26.7865 23.0597 26.6619 23.0483 26.5372 23.0483C25.3149 23.0489 24.1278 23.4582 23.165 24.2112C22.2021 24.9643 21.5188 26.0177 21.2238 27.2039H14.9016C14.8435 27.2039 14.7878 27.1808 14.7467 27.1397C14.7056 27.0986 14.6825 27.0429 14.6825 26.9848V24.7899C14.6828 24.761 14.6773 24.7323 14.6664 24.7055C14.6555 24.6787 14.6394 24.6543 14.619 24.6337C14.5987 24.6132 14.5744 24.5969 14.5477 24.5858C14.521 24.5746 14.4923 24.5689 14.4634 24.5689H12.278C12.249 24.5689 12.2204 24.5746 12.1937 24.5858C12.167 24.5969 12.1427 24.6132 12.1224 24.6337C12.102 24.6543 12.0859 24.6787 12.075 24.7055C12.0641 24.7323 12.0586 24.761 12.0589 24.7899V26.9848C12.0589 27.0137 12.0531 27.0424 12.042 27.0691C12.0309 27.0958 12.0146 27.12 11.994 27.1404C11.9735 27.1608 11.9491 27.1769 11.9223 27.1878C11.8955 27.1987 11.8668 27.2041 11.8379 27.2039H10.1605C10.1024 27.2039 10.0467 27.227 10.0056 27.2681C9.9645 27.3092 9.94141 27.3649 9.94141 27.423V29.6179C9.94116 29.6468 9.94665 29.6755 9.95755 29.7023C9.96845 29.7291 9.98455 29.7535 10.0049 29.7741C10.0253 29.7946 10.0495 29.8109 10.0762 29.822C10.1029 29.8332 10.1316 29.8389 10.1605 29.8389L21.2238 29.8446ZM26.5372 25.6569C26.6635 25.6569 26.7896 25.6644 26.915 25.6796C27.638 25.7747 28.2977 26.1414 28.7601 26.7053C29.2226 27.2691 29.4532 27.9878 29.4051 28.7154C29.3571 29.4431 29.0339 30.1251 28.5013 30.6232C27.9686 31.1213 27.2664 31.398 26.5372 31.3972C26.4109 31.3976 26.2846 31.3894 26.1594 31.3727C25.4338 31.281 24.7706 30.9158 24.3053 30.3515C23.84 29.7873 23.6077 29.0666 23.6559 28.3368C23.7042 27.6071 24.0293 26.9232 24.5648 26.4251C25.1003 25.927 25.8058 25.6522 26.5372 25.6569Z" fill="url(#paint1_linear_8324_35)"/>
</g>
<defs>
<linearGradient id="paint0_linear_8324_35" x1="12.8611" y1="30.2281" x2="12.8611" y2="0.782238" gradientUnits="userSpaceOnUse">
<stop stop-color="#773ADC"/>
<stop offset="0.4" stop-color="#8D58E7"/>
<stop offset="1" stop-color="#A67AF4"/>
</linearGradient>
<linearGradient id="paint1_linear_8324_35" x1="20.9782" y1="34.0001" x2="20.9782" y2="23.0427" gradientUnits="userSpaceOnUse">
<stop stop-color="#FEA11B"/>
<stop offset="0.7" stop-color="#FFD70F"/>
</linearGradient>
<clipPath id="clip0_8324_35">
<rect width="34" height="34" fill="white"/>
</clipPath>
</defs>
</svg>
