<svg width="34" height="34" viewBox="0 0 34 34" fill="none" xmlns="http://www.w3.org/2000/svg">
<path d="M15.6401 4.82812H17.6801V17.6801H15.6401V4.82812Z" fill="#7A7A7A"/>
<path d="M19.652 4.41973C19.652 5.0115 19.4765 5.58997 19.1477 6.082C18.819 6.57403 18.3517 6.95753 17.805 7.18398C17.2582 7.41044 16.6567 7.46969 16.0763 7.35424C15.4959 7.2388 14.9627 6.95384 14.5443 6.5354C14.1259 6.11696 13.8409 5.58384 13.7255 5.00344C13.61 4.42305 13.6693 3.82146 13.8957 3.27475C14.1222 2.72803 14.5057 2.26074 14.9977 1.93198C15.4897 1.60321 16.0682 1.42773 16.66 1.42773C17.4535 1.42773 18.2145 1.74296 18.7756 2.30407C19.3367 2.86518 19.652 3.62621 19.652 4.41973Z" fill="#1490DF"/>
<path d="M16.252 17H12.988C11.9663 17.0077 10.9846 17.3986 10.2371 18.0953C9.48965 18.792 9.03081 19.7438 8.95133 20.7625C8.87185 21.7812 9.17752 22.7927 9.80789 23.5969C10.4383 24.4011 11.3474 24.9395 12.3556 25.1056C12.2807 24.6016 12.2946 24.0884 12.3964 23.5892C11.7736 23.4513 11.224 23.0872 10.8541 22.5675C10.4842 22.0478 10.3201 21.4093 10.3937 20.7756C10.4673 20.1419 10.7734 19.5581 11.2526 19.137C11.7318 18.7159 12.3502 18.4875 12.988 18.496H16.252C16.9374 18.496 17.5946 18.7682 18.0792 19.2528C18.5638 19.7374 18.836 20.3947 18.836 21.08C18.836 21.7653 18.5638 22.4226 18.0792 22.9072C17.5946 23.3918 16.9374 23.664 16.252 23.664H15.3544C15.2325 23.919 15.1676 24.1974 15.164 24.48C15.1649 24.7127 15.2087 24.9432 15.2932 25.16H16.252C17.3341 25.16 18.3719 24.7301 19.137 23.965C19.9022 23.1998 20.332 22.1621 20.332 21.08C20.332 19.9979 19.9022 18.9602 19.137 18.195C18.3719 17.4299 17.3341 17 16.252 17Z" fill="url(#paint0_linear_40_1216)"/>
<path d="M20.9647 20.4538C20.9945 20.6611 21.0104 20.8701 21.0123 21.0794C21.0142 21.3786 20.9845 21.6772 20.9239 21.9702C21.5467 22.1082 22.0963 22.4722 22.4662 22.9919C22.8362 23.5117 23.0002 24.1501 22.9266 24.7838C22.853 25.4175 22.547 26.0013 22.0678 26.4224C21.5885 26.8435 20.9702 27.0719 20.3323 27.0634H17.0683C16.383 27.0634 15.7257 26.7912 15.2411 26.3066C14.7565 25.822 14.4843 25.1647 14.4843 24.4794C14.4843 23.7941 14.7565 23.1368 15.2411 22.6523C15.7257 22.1677 16.383 21.8954 17.0683 21.8954H17.9659C18.0888 21.6408 18.1538 21.3621 18.1563 21.0794C18.1554 20.8467 18.1116 20.6162 18.0271 20.3994H17.0683C15.9862 20.3994 14.9484 20.8293 14.1833 21.5944C13.4181 22.3596 12.9883 23.3973 12.9883 24.4794C12.9883 25.5615 13.4181 26.5993 14.1833 27.3644C14.9484 28.1296 15.9862 28.5594 17.0683 28.5594H20.3323C21.3541 28.5517 22.3357 28.1608 23.0832 27.4641C23.8307 26.7674 24.2895 25.8156 24.369 24.7969C24.4485 23.7782 24.1428 22.7667 23.5124 21.9625C22.8821 21.1583 21.9729 20.6199 20.9647 20.4538Z" fill="url(#paint1_linear_40_1216)"/>
<path d="M10.785 30.2734L10.037 31.0282C9.94126 31.1236 9.81167 31.1771 9.67657 31.1771C9.54148 31.1771 9.41189 31.1236 9.31618 31.0282L0.945375 22.6778C0.753946 22.4854 0.646484 22.2251 0.646484 21.9536C0.646484 21.6822 0.753946 21.4219 0.945375 21.2294L1.70017 20.4814L10.785 29.5526C10.8324 29.5987 10.8702 29.6536 10.8963 29.7143C10.9225 29.775 10.9364 29.8402 10.9372 29.9063C10.9381 29.9724 10.926 30.038 10.9015 30.0993C10.877 30.1607 10.8406 30.2166 10.7945 30.2639L10.785 30.2734Z" fill="#50E6FF"/>
<path d="M9.88057 13.0014L10.717 13.8378C10.8123 13.9335 10.8658 14.0631 10.8658 14.1982C10.8658 14.3333 10.8123 14.4629 10.717 14.5586L1.78177 23.521L0.945375 22.6914C0.753946 22.499 0.646484 22.2386 0.646484 21.9672C0.646484 21.6958 0.753946 21.4354 0.945375 21.243L9.15977 13.0014C9.25549 12.9061 9.38508 12.8525 9.52017 12.8525C9.65527 12.8525 9.78486 12.9061 9.88057 13.0014Z" fill="#1490DF"/>
<path d="M23.2085 30.8653C23.1611 30.8192 23.1232 30.7643 23.0971 30.7036C23.071 30.6429 23.0571 30.5777 23.0562 30.5116C23.0553 30.4455 23.0675 30.38 23.092 30.3186C23.1165 30.2572 23.1528 30.2013 23.1989 30.154L23.2085 30.1445L32.3001 21.0801L33.0549 21.8349C33.2463 22.0273 33.3538 22.2877 33.3538 22.5591C33.3538 22.8305 33.2463 23.0909 33.0549 23.2833L24.6773 31.6201C24.6312 31.6675 24.5763 31.7053 24.5156 31.7314C24.4549 31.7576 24.3897 31.7715 24.3236 31.7723C24.2575 31.7732 24.1919 31.7611 24.1306 31.7366C24.0692 31.7121 24.0133 31.6757 23.966 31.6296L23.9565 31.6201L23.2085 30.8653Z" fill="#50E6FF"/>
<path d="M24.8338 13.6L33.055 21.8416C33.2461 22.0329 33.3533 22.2921 33.3533 22.5624C33.3533 22.8327 33.2461 23.092 33.055 23.2832L32.2186 24.1196L23.2766 15.1572C23.1825 15.0595 23.1299 14.9291 23.1299 14.7934C23.1299 14.6578 23.1825 14.5273 23.2766 14.4296L24.113 13.6C24.2088 13.5047 24.3384 13.4512 24.4734 13.4512C24.6085 13.4512 24.7381 13.5047 24.8338 13.6Z" fill="#1490DF"/>
<defs>
<linearGradient id="paint0_linear_40_1216" x1="14.6357" y1="17" x2="14.6357" y2="25.16" gradientUnits="userSpaceOnUse">
<stop offset="0.23" stop-color="#5EA0EF"/>
<stop offset="0.32" stop-color="#5B9FEE"/>
<stop offset="0.48" stop-color="#509AEB"/>
<stop offset="0.57" stop-color="#3F92E6"/>
<stop offset="0.75" stop-color="#2688DF"/>
<stop offset="0.93" stop-color="#127FD9"/>
</linearGradient>
<linearGradient id="paint1_linear_40_1216" x1="18.6846" y1="20.3994" x2="18.6846" y2="28.5594" gradientUnits="userSpaceOnUse">
<stop offset="0.02" stop-color="#5EA0EF"/>
<stop offset="0.14" stop-color="#5B9FEE"/>
<stop offset="0.23" stop-color="#5B9FEE"/>
<stop offset="0.34" stop-color="#509AEB"/>
<stop offset="0.44" stop-color="#3F92E6"/>
<stop offset="0.63" stop-color="#2688DF"/>
<stop offset="0.93" stop-color="#127FD9"/>
</linearGradient>
</defs>
</svg>
