<svg width="34" height="34" viewBox="0 0 34 34" fill="none" xmlns="http://www.w3.org/2000/svg">
<path d="M21.4423 28.4988C28.3242 28.4988 33.9031 22.9199 33.9031 16.038C33.9031 9.15604 28.3242 3.57715 21.4423 3.57715C14.5603 3.57715 8.98145 9.15604 8.98145 16.038C8.98145 22.9199 14.5603 28.4988 21.4423 28.4988Z" fill="#005BA1"/>
<path d="M12.6932 3.21289C10.1718 3.70523 7.85424 4.93733 6.03592 6.75209C4.2176 8.56684 2.98095 10.882 2.48367 13.4024C1.98639 15.9228 2.251 18.5342 3.24376 20.9036C4.23653 23.273 5.91246 25.293 8.05787 26.7061L8.50251 25.5898C8.51803 25.5492 8.54408 25.5135 8.57799 25.4864C8.61189 25.4592 8.65242 25.4416 8.6954 25.4353C8.73838 25.429 8.78227 25.4343 8.82253 25.4506C8.8628 25.4669 8.89799 25.4936 8.92449 25.528L12.1195 29.6519C12.16 29.704 12.1785 29.77 12.1709 29.8356C12.1634 29.9012 12.1304 29.9612 12.0791 30.0028C12.0441 30.031 12.0019 30.049 11.9573 30.0548L6.82782 30.7858C6.79537 30.7899 6.76242 30.7877 6.73086 30.7791C6.69929 30.7705 6.66974 30.7557 6.6439 30.7356C6.61806 30.7156 6.59644 30.6906 6.58029 30.6621C6.56414 30.6337 6.55377 30.6023 6.54978 30.5699C6.5443 30.5275 6.54956 30.4844 6.56508 30.4446L7.21542 28.7928C3.89282 26.7452 1.49589 23.4866 0.530644 19.705C-0.359023 16.3567 0.10772 12.7926 1.82957 9.78632C3.55142 6.78003 6.38943 4.57411 9.72764 3.64733C10.6957 3.38661 11.6911 3.2408 12.6932 3.21289Z" fill="#86D633"/>
<path d="M15.6489 3.50196C13.1938 3.49989 10.7923 4.21936 8.74284 5.57095C6.69334 6.92254 5.08625 8.84664 4.12131 11.1041C3.15637 13.3615 2.87614 15.8528 3.31544 18.2682C3.75475 20.6836 4.89422 22.9167 6.59222 24.6898C6.95917 25.0539 7.34915 25.3939 7.75974 25.7079L7.9016 25.3519C7.96869 25.1821 8.08603 25.0368 8.23794 24.9355C8.38985 24.8343 8.56906 24.7818 8.7516 24.7852C8.85948 24.7876 8.966 24.8098 9.06591 24.8506C9.21166 24.9098 9.33917 25.0065 9.43557 25.1309L11.5638 27.8779C13.2854 28.4727 15.1161 28.685 16.9282 28.5001C18.7403 28.3152 20.4903 27.7374 22.0563 26.8071C23.6223 25.8768 24.9667 24.6163 25.9958 23.1133C27.0249 21.6103 27.714 19.9011 28.0151 18.1046C28.3161 16.3082 28.2219 14.4677 27.739 12.7113C27.2562 10.955 26.3962 9.32502 25.219 7.93498C24.0419 6.54493 22.5759 5.42821 20.923 4.66261C19.2702 3.89701 17.4704 3.50093 15.6489 3.50196Z" fill="url(#paint0_linear_19911_1653)"/>
<path d="M21.1177 12.6543V19.0161L15.6494 22.2234V15.8446L21.1177 12.6543Z" fill="url(#paint1_linear_19911_1653)"/>
<path d="M21.1178 12.6542L15.6665 15.8615L10.1812 12.6542L15.6665 9.46387L21.1178 12.6542Z" fill="#C3F1FF"/>
<path d="M15.6495 15.8616V22.2234L10.1812 19.0161V12.6543L15.6495 15.8616Z" fill="url(#paint2_linear_19911_1653)"/>
<path d="M12.0178 8.19824H8.14328C7.89667 8.19829 7.66017 8.29628 7.4858 8.47066C7.31142 8.64504 7.21343 8.88153 7.21338 9.12814V13.0162C7.21338 13.1395 7.26235 13.2578 7.34953 13.3449C7.43671 13.4321 7.55495 13.4811 7.67823 13.4811H7.9882C8.04926 13.4811 8.10973 13.4691 8.16615 13.4458C8.22257 13.4224 8.27384 13.3882 8.31703 13.345C8.36021 13.3018 8.39447 13.2506 8.41784 13.1942C8.44122 13.1378 8.45325 13.0773 8.45325 13.0162V9.42337H12.0178C12.1386 9.41974 12.2534 9.36914 12.3375 9.28231C12.4217 9.19548 12.4688 9.07927 12.4686 8.95833V8.66253C12.4685 8.54174 12.4214 8.42574 12.3372 8.33909C12.2531 8.25243 12.1385 8.20192 12.0178 8.19824Z" fill="white"/>
<path d="M12.0179 22.554H8.43919V18.9893C8.43919 18.866 8.39022 18.7477 8.30304 18.6606C8.21586 18.5734 8.09763 18.5244 7.97434 18.5244H7.67835C7.55506 18.5244 7.43682 18.5734 7.34965 18.6606C7.26247 18.7477 7.21349 18.866 7.21349 18.9893V22.9344C7.21157 23.0566 7.23373 23.1779 7.27872 23.2915C7.3237 23.4051 7.39063 23.5087 7.47567 23.5964C7.56071 23.6841 7.6622 23.7542 7.77434 23.8026C7.88648 23.8511 8.00708 23.877 8.12923 23.8788H12.0179C12.0807 23.8759 12.1424 23.8605 12.1993 23.8337C12.2562 23.8069 12.3072 23.7692 12.3496 23.7226C12.3919 23.676 12.4246 23.6216 12.4459 23.5624C12.4671 23.5032 12.4765 23.4404 12.4735 23.3775L12.4688 23.3284V23.0185C12.4687 22.8976 12.4216 22.7815 12.3375 22.6948C12.2533 22.6081 12.1387 22.5576 12.0179 22.554Z" fill="white"/>
<path d="M23.0833 8.24093H19.2651C19.2041 8.24093 19.1436 8.25296 19.0872 8.27633C19.0308 8.2997 18.9795 8.33396 18.9364 8.37715C18.8932 8.42033 18.859 8.4716 18.8356 8.52802C18.8123 8.58444 18.8003 8.64491 18.8003 8.70597V9.00177C18.7947 9.06257 18.8012 9.12388 18.8193 9.18219C18.8374 9.2405 18.8668 9.29466 18.9059 9.34159C18.945 9.38852 18.9929 9.42728 19.047 9.45567C19.101 9.48406 19.1601 9.50152 19.2209 9.50705C19.2357 9.50837 19.2504 9.50913 19.2651 9.50913H22.8299V13.0455C22.8299 13.1688 22.8788 13.287 22.966 13.3742C23.0532 13.4614 23.1714 13.5104 23.2947 13.5104H23.6188C23.7421 13.5104 23.8604 13.4614 23.9475 13.3742C24.0347 13.287 24.0837 13.1688 24.0837 13.0455V9.17083C24.084 9.04871 24.0603 8.92772 24.0139 8.81477C23.9675 8.70181 23.8993 8.59911 23.8132 8.51251C23.7271 8.42592 23.6248 8.35713 23.5121 8.31008C23.3994 8.26302 23.2786 8.23863 23.1564 8.23828C23.1321 8.23828 23.1077 8.23923 23.0833 8.24093Z" fill="white"/>
<path d="M23.5624 18.5532H23.2666C23.1432 18.5532 23.0249 18.6022 22.9377 18.6894C22.8505 18.7767 22.8015 18.8949 22.8015 19.0183V22.597H19.2651C19.1419 22.597 19.0236 22.6459 18.9364 22.7331C18.8493 22.8203 18.8003 22.9385 18.8003 23.0618V23.3718C18.8003 23.4328 18.8123 23.4933 18.8356 23.5497C18.859 23.6062 18.8932 23.6574 18.9364 23.7006C18.9795 23.7438 19.0308 23.7781 19.0872 23.8014C19.1436 23.8248 19.2041 23.8368 19.2651 23.8368H23.1398C23.3878 23.8369 23.6259 23.7394 23.8026 23.5654C23.9793 23.3914 24.0805 23.1549 24.0843 22.9069V19.0183C24.0852 18.895 24.0371 18.7764 23.9505 18.6885C23.864 18.6007 23.7461 18.5508 23.6228 18.5498C23.6026 18.5496 23.5824 18.5508 23.5624 18.5532Z" fill="white"/>
<defs>
<linearGradient id="paint0_linear_19911_1653" x1="15.6489" y1="28.5732" x2="15.6489" y2="3.50196" gradientUnits="userSpaceOnUse">
<stop stop-color="#0078D4"/>
<stop offset="1" stop-color="#5EA0EF"/>
</linearGradient>
<linearGradient id="paint1_linear_19911_1653" x1="21.0709" y1="19.2579" x2="16.3005" y2="16.0296" gradientUnits="userSpaceOnUse">
<stop stop-color="#32BEDD"/>
<stop offset="1" stop-color="#9CEBFF"/>
</linearGradient>
<linearGradient id="paint2_linear_19911_1653" x1="12.9146" y1="22.224" x2="12.9146" y2="12.6539" gradientUnits="userSpaceOnUse">
<stop stop-color="#32BEDD"/>
<stop offset="1" stop-color="#9CEBFF"/>
</linearGradient>
</defs>
</svg>
